<?xml version="1.0" encoding="UTF-8"?>
<svg version="1.1" xmlns="http://www.w3.org/2000/svg" width="5000" height="2500">
<path d="M0 0 C1650 0 3300 0 5000 0 C5000 825 5000 1650 5000 2500 C3350 2500 1700 2500 0 2500 C0 1675 0 850 0 0 Z " fill="#C1C1C1" transform="translate(0,0)"/>
<path d="M0 0 C1650 0 3300 0 5000 0 C5000 412.5 5000 825 5000 1250 C4989.52503245 1247.67222943 4979.08778955 1245.34988188 4968.68647638 1242.73514163 C4967.9072408 1242.53956539 4967.12800521 1242.34398915 4966.32515642 1242.14248636 C4965.51554875 1241.93924294 4964.70594107 1241.73599951 4963.87179983 1241.5265972 C4962.11004043 1241.08621311 4960.34822902 1240.64603709 4958.58637114 1240.20604715 C4953.76976238 1239.00256041 4948.95389007 1237.79615033 4944.13813828 1236.58923967 C4938.86997492 1235.26951269 4933.60111657 1233.95256563 4928.33234841 1232.63525572 C4919.07103321 1230.31931857 4909.81015781 1228.00162958 4900.54956715 1225.68279704 C4886.68625406 1222.2114667 4872.82224736 1218.74291265 4858.95810017 1215.27491538 C4835.32857478 1209.36415833 4811.69961895 1203.45112709 4788.07094574 1197.53696442 C4764.12586173 1191.54361755 4740.18051057 1185.55133968 4716.23482895 1179.56038094 C4715.47929673 1179.37135436 4714.72376451 1179.18232778 4713.94533738 1178.98757312 C4705.46929265 1176.86695404 4696.99323986 1174.74636721 4688.51718321 1172.62579582 C4673.50980092 1168.87119266 4658.50244559 1165.11648172 4643.49509883 1161.36173654 C4641.88901172 1160.9599035 4640.28292452 1160.55807079 4638.67683723 1160.15623843 C4613.092205 1153.75513121 4587.50771376 1147.3534607 4561.92331195 1140.95143259 C4560.23236033 1140.52830353 4558.54140869 1140.10517457 4556.85045703 1139.68204571 C4553.45803776 1138.83315654 4550.06561852 1137.98426725 4546.67319932 1137.13537783 C4544.97180784 1136.70963653 4543.27041636 1136.28389524 4541.56902488 1135.85815398 C4540.30386589 1135.54157168 4540.30386589 1135.54157168 4539.01314814 1135.21859377 C4454.19053922 1113.9933348 4369.36651278 1092.77374599 4284.54182623 1071.5567917 C4273.07816408 1068.68941892 4261.61450717 1065.82202522 4250.15085261 1062.95462211 C4248.37891387 1062.51140731 4246.60697513 1062.06819251 4244.83503639 1061.62497773 C4243.95719385 1061.4054031 4243.07935131 1061.18582847 4242.17490748 1060.95960006 C4241.29657672 1060.73990332 4240.41824596 1060.52020657 4239.51329911 1060.29385234 C4238.6344761 1060.07403245 4237.75565309 1059.85421256 4236.85019909 1059.62773146 C4227.05482507 1057.17761602 4217.25944991 1054.72750512 4207.46407426 1052.27739621 C4206.57975891 1052.05620316 4205.69544355 1051.83501012 4204.78433076 1051.60711426 C4191.33678121 1048.24349073 4177.88922879 1044.87987867 4164.44167512 1041.51627162 C4085.33325632 1021.72905417 4006.22493642 1001.94144137 3927.11683723 982.1529462 C3923.37934298 981.21803083 3919.64184837 980.28311695 3915.90435341 979.34820446 C3827.64669155 957.27106684 3739.38955482 935.19183266 3651.13391113 913.10662842 C3650.20438236 912.87402216 3649.27485358 912.64141591 3648.31715726 912.40176098 C3617.40379518 904.66596758 3586.49047091 896.9300231 3555.57715395 889.19404939 C3469.26646043 867.59503414 3382.95536042 845.99764816 3296.64185524 824.4098711 C3295.31117974 824.07705655 3295.31117974 824.07705655 3293.95362191 823.73751846 C3254.99705652 813.99411386 3216.04032036 804.25139228 3177.08338524 794.50946608 C3161.41210234 790.59055801 3145.7408476 786.67153737 3130.06960931 782.75245094 C3127.47123106 782.10264544 3124.872852 781.45284322 3122.27447288 780.8030412 C3066.99327623 766.97829305 3011.7143971 753.1443039 2956.43672591 739.30546668 C2918.13859332 729.71749327 2879.84009719 720.1309827 2841.53921437 710.5540005 C2840.74519153 710.35545753 2839.95116868 710.15691456 2839.13308454 709.95235515 C2821.8130086 705.62155243 2804.49274204 701.29151262 2787.17228871 696.96221947 C2780.26522522 695.23576717 2773.35818838 693.50920824 2766.45116043 691.78261375 C2765.32098498 691.50010082 2765.32098498 691.50010082 2764.16797771 691.21188055 C2740.24582567 685.23194239 2716.32586688 679.24328871 2692.40715251 673.24961649 C2668.86683216 667.35080075 2645.32440263 661.46049031 2621.77883128 655.582667 C2607.35398093 651.98169719 2592.93106683 648.37321836 2578.51131404 644.75188779 C2569.38270125 642.46016746 2560.25159983 640.17856554 2551.11834457 637.90541775 C2545.92988097 636.6137682 2540.74265163 635.31763101 2535.55842332 634.00907609 C2530.85973497 632.82316256 2526.15802264 631.65016506 2521.45350103 630.48761461 C2519.76214294 630.06722837 2518.07196227 629.64207008 2516.38312822 629.21165597 C2514.0960883 628.62950779 2511.80539071 628.06489798 2509.51294967 627.50446026 C2507.61136521 627.02870713 2507.61136521 627.02870713 2505.6713649 626.54334283 C2498.97601266 625.55246567 2492.96625829 627.13343841 2486.44791947 628.7635853 C2485.726929 628.94252925 2485.00593854 629.1214732 2484.26309988 629.30583969 C2481.85091213 629.90574221 2479.44045579 630.51232395 2477.02993643 631.11889273 C2475.27196646 631.55758223 2473.51389338 631.99585868 2471.75572699 632.43376033 C2466.90230503 633.64386877 2462.05037397 634.85986297 2457.19865639 636.07678406 C2451.90888424 637.40247461 2446.61774696 638.72269594 2441.32678074 640.04361108 C2432.01069987 642.37022192 2422.69550472 644.70035212 2413.38086839 647.03273911 C2399.4365694 650.52437407 2385.49091643 654.01057984 2371.5449882 657.49570061 C2347.78027435 663.43463412 2324.01672133 669.37820153 2300.25374603 675.32408714 C2276.16282791 681.35201252 2252.07139564 687.37787685 2227.97932816 693.40120697 C2227.219981 693.59105458 2226.46063385 693.78090219 2225.67827617 693.97650276 C2218.71952602 695.71628843 2211.7607699 697.45605024 2204.8020067 699.19578373 C2187.35100614 703.55864134 2169.90008129 707.92180179 2152.44920611 712.2851609 C2151.64947649 712.48512238 2150.84974686 712.68508386 2150.025783 712.89110477 C2111.44845176 722.53686691 2072.87195636 732.18597025 2034.29552247 741.8353204 C1977.8247118 755.96069268 1921.35337471 770.08395731 1864.88129807 784.2042675 C1863.13780917 784.64021117 1861.39432029 785.07615489 1859.65083143 785.51209866 C1842.12686779 789.89380633 1824.60289193 794.27546516 1807.07890877 798.65709476 C1770.54757257 807.79125056 1734.01630826 816.92569383 1697.48508085 826.06028469 C1695.68286469 826.51092673 1693.88064849 826.96156859 1692.07843225 827.41221028 C1605.26118526 849.12074468 1518.44472859 870.83243903 1431.62840381 892.54466117 C1426.9284044 893.72010154 1422.22840476 894.89554099 1417.52840511 896.07098044 C1415.64742241 896.54140204 1413.7664397 897.01182363 1411.885457 897.48224523 C1410.95414958 897.71515919 1410.02284217 897.94807314 1409.06331331 898.1880451 C1405.29889824 899.12950098 1401.5344832 900.07095702 1397.77006817 901.01241306 C1379.85831948 905.49202645 1361.94657047 909.97163858 1344.03482038 914.45124636 C1340.25828943 915.39573126 1336.48175856 916.34021648 1332.70522775 917.28470197 C1245.8202529 939.01405998 1158.93499295 960.74227784 1072.04960273 982.46997494 C1067.34969627 983.64529505 1062.64979007 984.82061622 1057.94988396 985.9959377 C973.00033386 1007.23955904 888.0506529 1028.48265693 803.10068405 1049.72460367 C800.39799169 1050.40041858 797.69529942 1051.07623386 794.99260719 1051.75204926 C761.12620461 1060.22043323 727.25979648 1068.68879505 693.39335458 1077.15702175 C672.36749551 1082.41449062 651.34164467 1087.67199243 630.31580734 1092.92954826 C629.45376609 1093.14510342 628.59172484 1093.36065858 627.70356113 1093.58274571 C569.51268329 1108.13349838 511.32233503 1122.68636774 453.13227393 1137.24038633 C442.86858958 1139.80745438 432.60490307 1142.37451382 422.34121251 1144.94155705 C421.07941845 1145.25714339 421.07941845 1145.25714339 419.7921336 1145.57910521 C394.10383746 1152.00397764 368.4154126 1158.42833516 342.72685504 1164.85216224 C341.52925515 1165.15164119 341.52925515 1165.15164119 340.30746132 1165.45717022 C323.67077854 1169.61743486 307.03407271 1173.77760736 290.39733668 1177.93765904 C282.67564173 1179.86848589 274.95395214 1181.79933415 267.23226547 1183.73019409 C266.47475528 1183.9196142 265.71724509 1184.10903431 264.93678004 1184.30419443 C240.87101978 1190.32199726 216.80562711 1196.34126851 192.74044527 1202.36138394 C169.06285866 1208.28453403 145.38492287 1214.20628584 121.70646911 1220.12596849 C107.19526241 1223.75381447 92.68437429 1227.38292841 78.17402012 1231.0141829 C68.99452891 1233.31124116 59.81462018 1235.60662525 50.63435589 1237.90059191 C45.4146681 1239.20494087 40.19517449 1240.5100539 34.97619089 1241.81721791 C30.25242497 1243.00033414 25.5281349 1244.18133155 20.80339525 1245.36055305 C19.09815953 1245.78656301 17.39312512 1246.21337975 15.68830676 1246.64105686 C13.39314209 1247.21671234 11.09728536 1247.7895179 8.80121753 1248.36155853 C7.52604615 1248.68047535 6.25087477 1248.99939218 4.93706183 1249.32797315 C2 1250 2 1250 0 1250 C0 837.5 0 425 0 0 Z " fill="#939393" transform="translate(0,0)"/>
<path d="M0 0 C1.70291484 0.78964919 1.70291484 0.78964919 3.44023201 1.59525088 C4.73183019 2.23603097 6.02127379 2.88116575 7.3089449 3.52980129 C8.02794939 3.88797428 8.74695387 4.24614727 9.48774637 4.61517398 C11.90600671 5.82106006 14.32136753 7.03264221 16.73679197 8.24419749 C18.49376358 9.12181787 20.25091058 9.99908722 22.008217 10.87603701 C26.86913433 13.30306869 31.72752845 15.73511424 36.58554932 18.16793721 C41.87858463 20.8175081 47.17393759 23.4624396 52.46900028 26.10795581 C61.79553038 30.76847934 71.1205709 35.43197351 80.44463246 40.09743305 C90.50564395 45.13161803 100.56753371 50.16404139 110.63048668 55.19434445 C111.26788493 55.51297058 111.90528317 55.83159672 112.56199652 56.15987819 C115.81632296 57.78665892 119.07066344 59.41341156 122.32500872 61.0401546 C146.11482174 72.93199608 169.90265874 84.82778587 193.68951035 96.7255497 C217.80668268 108.78851789 241.92472695 120.84974022 266.04384613 132.90881538 C266.80387457 133.28881531 267.563903 133.66881524 268.3469626 134.06033032 C275.31189347 137.542664 282.27683407 141.02497819 289.24178629 144.50726916 C306.70875207 153.24028889 324.17558557 161.97357318 341.64233136 170.70703292 C342.44281172 171.10727685 343.24329209 171.50752078 344.06802943 171.91989331 C383.55072355 191.66145466 423.03191548 211.40601963 462.51301193 231.15077591 C476.4151678 238.103333 490.3173308 245.05587584 504.21952009 252.00836611 C505.08370375 252.4405447 505.94788741 252.8727233 506.83825845 253.31799822 C546.85678877 273.33125952 586.8763445 293.34246995 626.89616366 313.35315386 C629.51294393 314.66159476 632.12972373 315.97003662 634.7465034 317.27847874 C650.52554288 325.16831257 666.30459305 333.05812503 682.08365557 340.94791279 C721.31179828 360.56262302 760.53981274 380.17758973 799.76774025 399.79273033 C800.66082077 400.23929723 801.5539013 400.68586412 802.47404486 401.14596335 C860.32467931 430.07300837 918.17478566 459.00110933 976.0244503 487.93009377 C976.94818167 488.39202574 977.87191304 488.85395771 978.82363627 489.32988763 C1006.94317961 503.39168001 1035.06268387 517.45355052 1063.1821805 531.51543631 C1094.29998778 547.0767049 1125.41780172 562.63796018 1156.53564453 578.19915771 C1157.47136033 578.66708411 1158.40707613 579.13501051 1159.37114695 579.6171165 C1248.23151014 624.05379766 1337.0929487 668.48832817 1425.95466567 712.92230207 C1429.71821594 714.80420935 1433.4817659 716.68611725 1437.24531584 718.56802517 C1471.87813349 735.88565739 1506.51096375 753.20326436 1541.14380988 770.52083961 C1542.06472294 770.98132678 1542.98563599 771.44181395 1543.93445551 771.91625527 C1546.72273249 773.31048653 1549.51100947 774.70471777 1552.29928646 776.09894901 C1627.62735613 813.76548974 1702.95531567 851.43225072 1778.28320387 889.09915436 C1780.94104157 890.42817756 1783.59887936 891.75720059 1786.25671717 893.08622358 C1872.58551341 936.25400313 1958.91411126 979.42217939 2265.15380859 1132.56103516 C2265.90121488 1132.93478826 2266.64862117 1133.30854136 2267.41867613 1133.69362032 C2341.44112485 1170.70979301 2415.46350821 1207.72609641 2494 1247 C2494 1247.33 2494 1247.66 2494 1248 C844.66 1248 -804.68 1248 -2504 1248 C-2500.42348908 1245.31761681 -2496.91418245 1243.31680895 -2492.94323344 1241.34458221 C-2492.22719446 1240.98497763 -2491.51115549 1240.62537306 -2490.77341836 1240.25487137 C-2488.35700041 1239.04254603 -2485.9377597 1237.83596412 -2483.51850903 1236.62930268 C-2481.76453204 1235.75082065 -2480.01073037 1234.8719885 -2478.25708872 1233.99283725 C-2473.39970841 1231.5589804 -2468.53982818 1229.13015222 -2463.67955283 1226.70208292 C-2458.38702173 1224.05697503 -2453.09680527 1221.40724519 -2447.80629545 1218.7580975 C-2438.48525388 1214.09152965 -2429.1627248 1209.42794322 -2419.83920659 1204.76632621 C-2409.77788639 1199.73580141 -2399.71743668 1194.70354186 -2389.65803479 1189.6691821 C-2389.02104713 1189.35039477 -2388.38405948 1189.03160744 -2387.72776918 1188.70315989 C-2385.13067304 1187.403408 -2382.5335831 1186.10364373 -2379.936501 1184.8038638 C-2355.50259768 1172.57525883 -2331.06670222 1160.35063955 -2306.62965012 1148.12832832 C-2282.51623007 1136.06787363 -2258.40366153 1124.00571904 -2234.29212952 1111.94149017 C-2232.7560646 1111.17292108 -2231.21999961 1110.40435212 -2229.68393454 1109.63578331 C-2223.49074271 1106.53702218 -2217.29755572 1103.43825139 -2211.10437438 1100.33946929 C-2135.97334787 1062.74740761 -2060.83791124 1025.16416444 -1985.70149904 987.58286874 C-1962.21118288 975.8336151 -1938.72098054 964.08413393 -1915.23086572 952.33447777 C-1907.41894606 948.42698914 -1899.60702374 944.51950583 -1891.79510085 940.61202368 C-1890.93476736 940.18168945 -1890.07443388 939.75135523 -1889.18802968 939.30798058 C-1800.9272133 895.16040362 -1712.6658259 851.01396799 -1532.8426302 761.08092857 C-1522.57301392 755.9451364 -1512.30340579 750.80932794 -1502.03379881 745.67351719 C-1501.10779196 745.21042298 -1500.18178511 744.74732878 -1499.22771745 744.27020142 C-1480.46546379 734.8872347 -1461.70321828 725.50425168 -1442.94098432 716.12124554 C-1438.23768886 713.7691243 -1433.53439272 711.41700443 -1428.83109489 709.06488791 C-1339.98496618 664.63298645 -1251.14057009 620.19762653 -1162.30249023 575.74963379 C-1161.3670452 575.28160661 -1160.43160016 574.81357943 -1159.4678083 574.3313696 C-1128.35886375 558.7667544 -1097.25013057 543.20171677 -1066.14141943 527.63663507 C-1038.03343694 513.57295384 -1009.92540492 499.50937161 -981.81720161 485.44613171 C-980.89385649 484.98415877 -979.97051136 484.52218584 -979.01918608 484.04621373 C-921.21028017 455.12298604 -863.39896326 426.20458217 -805.58512688 397.29121113 C-804.69247422 396.84478442 -803.79982156 396.39835771 -802.88011882 395.93840292 C-763.68067784 376.33428155 -724.4807137 356.73120649 -685.28016266 337.1293049 C-669.51067947 329.24390492 -653.74126418 321.35836914 -637.97188255 313.47276604 C-635.35717375 312.16526224 -632.74246242 310.85776346 -630.12775071 309.55026548 C-590.11180919 289.54008226 -550.09746382 269.5267161 -510.08779383 249.50399566 C-509.22434642 249.07188618 -508.36089902 248.63977671 -507.47128654 248.19457301 C-493.58074845 241.2430753 -479.69033928 234.29131998 -465.79994831 227.3395283 C-426.38618531 207.61393532 -386.97144955 187.89029858 -347.54956985 168.18093073 C-346.35072817 167.58155608 -346.35072817 167.58155608 -345.12766748 166.97007285 C-327.69472765 158.25432576 -310.26123562 149.53968378 -292.82720169 140.82612541 C-285.87496809 137.3513663 -278.92280848 133.87645916 -271.97067261 130.40150452 C-271.2122925 130.02244082 -270.45391239 129.64337713 -269.67255107 129.25282665 C-245.58476375 117.21285804 -221.5031689 105.16056874 -197.42509228 93.10119339 C-173.7318891 81.23464291 -150.03269787 69.38015203 -126.32459793 57.54338886 C-123.08278376 55.92484317 -119.84103965 54.30615721 -116.59933756 52.68738703 C-115.96466871 52.3704667 -115.32999986 52.05354638 -114.67609862 51.72702241 C-104.640952 46.71553904 -94.61256805 41.69067583 -84.58696089 36.66014033 C-74.79462301 31.74699046 -64.99516944 26.84824821 -55.18829232 21.96417115 C-49.96066286 19.36016211 -44.73647035 16.74980453 -39.52081636 14.12187996 C-34.79745477 11.74214159 -30.06543721 9.38068382 -25.32554357 7.0340542 C-23.61878888 6.18500366 -21.91541225 5.32912268 -20.21577913 4.46590448 C-17.92156885 3.30190421 -15.6165747 2.16293986 -13.30705423 1.02969862 C-12.31732788 0.51645615 -12.31732788 0.51645615 -11.30760706 -0.00715486 C-6.76737282 -2.18871343 -4.51757789 -2.12313092 0 0 Z " fill="#D0D0D0" transform="translate(2505,1252)"/>
<path d="M0 0 C0.72099046 0.17889278 1.44198093 0.35778556 2.18481959 0.54209933 C4.59700642 1.14182984 7.00746326 1.74823606 9.41798303 2.35462943 C11.1759531 2.79319318 12.93402618 3.23134415 14.69219247 3.66912057 C19.54561369 4.87888273 24.39754511 6.09452801 29.24926308 7.31110021 C34.53903612 8.63641151 39.83017297 9.95625729 45.12113873 11.27679726 C54.4372196 13.60274801 63.75241485 15.9322187 73.06705108 18.2639477 C87.01135305 21.7545998 100.95700561 25.23983482 114.90293126 28.72399313 C138.6676488 34.6612897 162.43120175 40.60323649 186.19417343 46.54751626 C210.28509501 52.57381672 234.37652789 58.59806697 258.46859131 64.61980096 C259.22793846 64.80959834 259.98728562 64.99939573 260.76964329 65.19494455 C267.72839392 66.93427057 274.68715006 68.6735746 281.64591276 70.41285231 C299.09691739 74.77456973 316.54784214 79.13660672 333.99871335 83.49885789 C335.19830779 83.79872413 335.19830779 83.79872413 336.42213646 84.10464828 C375.86233213 93.96366442 415.30163666 103.82624374 454.74086914 113.6891121 C468.627409 117.1618227 482.51395116 120.6345241 496.40050612 124.10717431 C497.69533834 124.43097681 497.69533834 124.43097681 499.01632879 124.76132078 C538.99513694 134.75892122 578.97450874 144.75426672 618.95401636 154.74906962 C621.56837383 155.40265445 624.18273099 156.05624054 626.79708804 156.70982707 C642.56161848 160.65094307 658.32615311 164.59204234 674.09069319 168.5331198 C713.28243982 178.33091621 752.47410761 188.12902794 791.6657177 197.92737046 C793.00408361 198.26197676 793.00408361 198.26197676 794.36948722 198.60334279 C852.16353769 213.05249986 909.95725156 227.50300279 967.75070534 241.95454636 C968.67350071 242.18529591 969.59629608 242.41604545 970.54705494 242.65378741 C1000.51752581 250.1480534 1030.48797434 257.64240873 1060.45842082 265.13677225 C1089.66466297 272.4400399 1118.87091337 279.74327458 1148.07719193 287.04639664 C1149.01194484 287.28013457 1149.94669775 287.51387251 1150.90977651 287.7546934 C1239.67878788 309.9516531 1328.44877368 332.14471476 1417.21895315 354.33700248 C1421.91820554 355.51180214 1426.6174577 356.68660274 1431.31670987 357.86140328 C1436.95000244 359.26971137 1442.58329504 360.6780194 1448.21658771 362.08632711 C1467.86166209 366.99754181 1487.50673546 371.90876055 1507.15180682 376.81998732 C1509.94797083 377.51902234 1512.74413492 378.21805699 1515.54029904 378.91709156 C1572.37732053 393.12621794 1629.21419149 407.33594626 1686.05088005 421.54640427 C1686.94278961 421.76940181 1687.83469917 421.99239935 1688.75363629 422.22215439 C1729.67638849 432.45376981 1770.59909193 442.68558025 1811.521756 452.91754816 C1814.15403698 453.57570213 1816.78631802 454.2338559 1819.41859907 454.89200961 C1824.67298285 456.20577217 1829.92736653 457.51953513 1835.18175016 458.83329827 C1836.48019788 459.1579515 1836.48019788 459.1579515 1837.80487687 459.48916339 C1846.52480228 461.6694223 1855.24472737 463.8496825 1863.96465081 466.02994932 C1903.07675623 475.80925807 1942.18892367 485.58831861 1981.30128584 495.36660042 C1983.04408528 495.80230913 1984.78688472 496.23801784 1986.52968416 496.67372656 C1993.48381958 498.41229529 2000.43795558 500.15086174 2007.39209181 501.88942722 C2052.83528899 513.25043204 2098.2784713 524.61149607 2143.72106443 535.97491685 C2144.51946435 536.1745655 2145.31786428 536.37421416 2146.14045815 536.57991278 C2163.55472788 540.93454851 2180.96896158 545.28932831 2198.38315968 549.64425051 C2204.56069572 551.18911998 2210.73823457 552.7339782 2216.91577499 554.27883018 C2218.44756327 554.66189304 2219.97935141 555.0449564 2221.51113943 555.42802028 C2245.57627638 561.44613327 2269.64177244 567.46280865 2293.7074742 573.47866258 C2317.38588014 579.3977091 2341.06392827 585.3181845 2364.74145035 591.2407657 C2379.25188217 594.87033473 2393.76262494 598.49865433 2408.27389935 602.12485326 C2417.45418607 604.4190357 2426.63405204 606.71489608 2435.81356358 609.01217821 C2441.03265511 610.31826679 2446.25193437 611.62359225 2451.47172858 612.92687003 C2456.19649686 614.10656427 2460.92073003 615.28837556 2465.64452421 616.47196415 C2467.34934767 616.89871368 2469.05437298 617.32465771 2470.75961271 617.74974083 C2473.05585421 618.32226755 2475.35136471 618.89763515 2477.64670193 619.47377473 C2479.55945901 619.95205396 2479.55945901 619.95205396 2481.51085764 620.43999539 C2484.44791947 621.23688737 2484.44791947 621.23688737 2486.44791947 622.23688737 C2486.44791947 828.48688737 2486.44791947 1034.73688737 2486.44791947 1247.23688737 C2474.67592652 1243.11668984 2462.94039835 1238.99499716 2451.27604447 1234.59626237 C2449.88929924 1234.07528972 2448.5024761 1233.55452444 2447.11558304 1233.03394547 C2444.17346629 1231.92913568 2441.23186489 1230.82296955 2438.2906929 1229.71564713 C2433.57051316 1227.93856468 2428.84914186 1226.16466248 2424.12760697 1224.39118424 C2418.34514803 1222.21899386 2412.5629503 1220.04611108 2406.78110275 1217.87229386 C2396.60419718 1214.04614105 2386.42520584 1210.22557668 2376.24479447 1206.40876237 C2375.50834953 1206.13265374 2374.7719046 1205.85654511 2374.01314316 1205.57206956 C2370.30731084 1204.18271057 2366.60143989 1202.79345465 2362.8955513 1201.40424576 C2356.16387759 1198.88071799 2349.43255029 1196.35626647 2342.70119248 1193.83189622 C2338.95011525 1192.42518986 2335.19901627 1191.01854151 2331.44791947 1189.61188737 C2329.94791936 1189.04938764 2328.44791936 1188.48688764 2326.94791947 1187.92438737 C2326.20541947 1187.64594987 2325.46291947 1187.36751237 2324.69791947 1187.08063737 C2250.44791947 1159.23688737 2176.19791947 1131.39313737 157.94791947 374.54938737 C157.20540593 374.27094483 156.4628924 373.99250229 155.69787846 373.70562211 C154.19801505 373.14317325 152.69815174 372.58072411 151.19828854 372.01827469 C147.44619959 370.61123995 143.69410881 369.20421005 139.94201431 367.7971901 C133.21695694 365.27531601 126.49191163 362.75340978 119.76693592 360.23131791 C116.04992916 358.83731668 112.33291152 357.44334447 108.61588822 356.04938737 C107.87861181 355.77289353 107.14133541 355.49639969 106.3817173 355.21152726 C96.20422184 351.39482015 86.02622395 347.57945555 75.84785233 343.76508561 C70.16740088 341.63631526 64.48708992 339.50717014 58.80680809 337.37794724 C54.23667168 335.66489489 49.66636344 333.95230222 45.09588585 332.24016038 C42.95399548 331.4376458 40.81225527 330.63473161 38.6705452 329.831736 C35.92200233 328.80122923 33.17285721 327.77235276 30.42329178 326.7445778 C23.64623522 324.20834223 16.88434472 321.63832593 10.14079056 319.01423112 C8.1448848 318.24174583 6.14870466 317.46997395 4.15243874 316.69841996 C2.2953548 315.97680177 0.44252208 315.24427279 -1.41015854 314.5114235 C-2.52667297 314.07986954 -3.64318741 313.64831559 -4.79353561 313.20368424 C-5.76503052 312.82240372 -6.73652542 312.44112321 -7.73745956 312.04828873 C-13.16800298 310.48276698 -17.22259456 311.20665174 -22.42463913 313.19513932 C-23.57613952 313.62962388 -24.72763992 314.06410843 -25.91403427 314.51175919 C-27.17625117 314.99941834 -28.43841052 315.48722644 -29.70051803 315.97516862 C-31.03960681 316.48438244 -32.37904835 316.99266943 -33.71881332 317.50010148 C-36.60492574 318.59527279 -39.48862015 319.69651105 -42.3705925 320.80253068 C-46.99719053 322.57788878 -51.62898333 324.33939663 -56.26179733 326.09845963 C-61.11966018 327.94356597 -65.97726307 329.78933307 -70.83319321 331.63952103 C-86.17394067 337.48384245 -101.54180652 343.25460818 -116.91639938 349.00919572 C-121.40596732 350.6896533 -125.89487249 352.371876 -130.3836235 354.05451432 C-131.13066292 354.33454206 -131.87770233 354.6145698 -132.6473793 354.90308324 C-134.1581375 355.46939114 -135.66889495 356.03570107 -137.17965164 356.60201302 C-140.19972824 357.73401957 -143.21990137 358.86576845 -146.24007645 359.99751225 C-156.01517871 363.6605317 -165.78963175 367.3252808 -175.56379928 370.99079362 C-176.30594995 371.26911467 -177.04810062 371.54743573 -177.81274071 371.83419076 C-181.56020224 373.23957107 -185.30765416 374.644977 -189.05510177 376.05039445 C-195.80397723 378.58143315 -202.5529379 381.11224463 -209.30189171 383.64307442 C-213.0519581 385.04933621 -216.80201904 386.45561252 -220.55208053 387.86188737 C-222.05208051 388.42438744 -223.55208051 388.98688744 -225.05208053 389.54938737 C-225.79458053 389.82782487 -226.53708053 390.10626237 -227.30208053 390.39313737 C-301.55208053 418.23688737 -375.80208053 446.08063737 -2322.05208053 1175.92438737 C-2322.79458714 1176.20282738 -2323.53709375 1176.4812674 -2324.30210056 1176.76814499 C-2325.8020337 1177.33061984 -2327.30196694 1177.89309441 -2328.80190029 1178.4555687 C-2332.55292413 1179.86220125 -2336.30394615 1181.26883865 -2340.05496445 1182.675486 C-2346.79273665 1185.20217305 -2353.53052123 1187.72882708 -2360.26837482 1190.25529709 C-2364.0022754 1191.65538628 -2367.73616518 1193.05550426 -2371.47004928 1194.45563737 C-2372.20999822 1194.73310303 -2372.94994716 1195.0105687 -2373.7123188 1195.29644242 C-2384.45579589 1199.32509227 -2395.19864898 1203.35540274 -2405.94117012 1207.38660088 C-2461.24849792 1228.14073005 -2461.24849792 1228.14073005 -2488.11711349 1238.16584244 C-2490.34698768 1238.99799196 -2492.57666642 1239.83066542 -2494.80613937 1240.66388932 C-2497.81329433 1241.78751316 -2500.82122351 1242.90903573 -2503.82942428 1244.02985612 C-2504.71095169 1244.35962952 -2505.59247909 1244.68940293 -2506.50071945 1245.02916947 C-2512.43743794 1247.23688737 -2512.43743794 1247.23688737 -2513.55208053 1247.23688737 C-2513.55208053 1040.98688737 -2513.55208053 834.73688737 -2513.55208053 622.23688737 C-2503.12552045 619.34062067 -2492.73389093 616.45426563 -2482.23855692 613.84022784 C-2481.45932133 613.64583886 -2480.68008574 613.45144989 -2479.87723696 613.25117034 C-2479.06762928 613.04924853 -2478.2580216 612.84732672 -2477.42388036 612.63928607 C-2475.66202137 612.19800902 -2473.9002136 611.75652744 -2472.13845168 611.31486303 C-2467.32289449 610.10825182 -2462.50662085 608.90452331 -2457.69021881 607.70128958 C-2452.42119634 606.3844272 -2447.15285817 605.06483214 -2441.88442894 603.74559876 C-2432.62388684 601.42712559 -2423.36291083 599.11039235 -2414.10164768 596.79480122 C-2400.88989836 593.49146563 -2387.67874514 590.18575155 -2374.46775458 586.87938287 C-2350.18668108 580.80246103 -2325.90502544 574.72786826 -2301.62302627 568.65464631 C-2277.67738781 562.66554811 -2253.73199858 556.6754549 -2229.78690948 550.68416062 C-2228.25926719 550.30193095 -2226.73162487 549.9197014 -2225.20398252 549.53747195 C-2219.04438053 547.9962845 -2212.88477977 546.45509215 -2206.72518046 544.91389401 C-2127.74606835 525.15249123 -2048.76545065 505.39710874 -1969.78455944 485.64281791 C-1956.81727204 482.39950639 -1943.84999509 479.1561531 -1930.88272711 475.91276392 C-1930.0300727 475.69949696 -1929.17741829 475.48622999 -1928.29892587 475.26650039 C-1924.85390458 474.4048273 -1921.40888336 473.54315398 -1917.96386219 472.68148042 C-1830.76217926 450.87047412 -1743.56028355 429.06031853 -1532.7685072 376.34503536 C-1522.56763912 373.79415456 -1512.36677406 371.24326174 -1502.16590965 368.69236629 C-1501.24611641 368.46235674 -1500.32632318 368.23234718 -1499.37865742 367.99536764 C-1480.74279207 363.33515959 -1462.10693054 358.67493627 -1443.47107329 354.01469587 C-1438.7995272 352.84648949 -1434.12798087 351.67828408 -1429.45643394 350.51008107 C-1341.19849654 328.4396193 -1252.94116375 306.36674467 -1164.68599167 284.28522721 C-1163.75646289 284.05265847 -1162.82693411 283.82008972 -1161.8692378 283.58047344 C-1130.95585332 275.84591708 -1100.04254003 268.11107616 -1069.12923449 260.37620431 C-1041.19687347 253.38720064 -1013.26449459 246.39826834 -985.33205452 239.40958062 C-984.41446257 239.17999931 -983.49687062 238.95041799 -982.55147286 238.71387967 C-925.09982242 224.33950788 -867.64732137 209.96854 -810.19393577 195.60110512 C-809.30681878 195.37926229 -808.41970178 195.15741946 -807.50570244 194.92885412 C-768.54914795 185.18692743 -729.59241007 175.44573429 -690.63546577 165.70536651 C-674.9641868 161.7870888 -659.29293217 157.86871372 -643.62168984 153.95028944 C-641.02331167 153.30059423 -638.42493261 152.65090254 -635.82655342 152.00121138 C-596.06830863 142.06015273 -556.3106314 132.11683197 -516.55461302 122.16687289 C-515.69685813 121.95219793 -514.83910324 121.73752297 -513.95535577 121.51634271 C-500.15688777 118.06291158 -486.35846587 114.60929626 -472.56005074 111.15565386 C-433.40486576 101.35539996 -394.24934073 91.55651536 -355.09129491 81.76769748 C-354.29727206 81.56920518 -353.50324922 81.37071288 -352.68516507 81.16620565 C-335.36509306 76.83651069 -318.04482657 72.50759421 -300.72436925 68.17944088 C-293.81730624 66.45344418 -286.91026939 64.72734281 -280.00324097 63.00120774 C-279.24979067 62.81291596 -278.49634037 62.62462418 -277.72005824 62.4306266 C-253.79791043 56.4522843 -229.87795118 50.46524285 -205.95923304 44.47319475 C-182.41891584 38.57598031 -158.87648644 32.68728566 -135.33091181 26.81109505 C-120.90606479 23.21112757 -106.48315085 19.60366132 -92.06339457 15.98335458 C-82.93478135 13.69228359 -73.80367999 11.41133188 -64.67042511 9.13883547 C-59.48196249 7.84755661 -54.29473342 6.55179155 -49.11050385 5.24361146 C-44.4118143 4.05803793 -39.71010203 2.88537885 -35.00558156 1.7231657 C-33.31422404 1.30290134 -31.6240434 0.87786573 -29.93520876 0.44757518 C-27.64816747 -0.13440582 -25.35747023 -0.69885123 -23.0650302 -1.25912505 C-21.16344574 -1.73474021 -21.16344574 -1.73474021 -19.22344544 -2.21996376 C-12.52825659 -3.21046304 -6.51825809 -1.62965662 0 0 Z " fill="#B2B2B2" transform="translate(2513.5520805343986,627.7631126344204)"/>
<path d="M0 0 C1.76395323 0.21880488 3.528007 0.43680035 5.29215015 0.65406869 C10.12951832 1.25219666 14.96538651 1.86175435 19.80108338 2.47322711 C25.08561476 3.13936395 30.37148521 3.79471804 35.65718898 4.45147493 C44.95310258 5.60801122 54.2481371 6.77141229 63.54263344 7.93928134 C77.45670155 9.68757057 91.37208875 11.4251832 105.28775333 13.16071346 C129.00368916 16.11882669 152.71852389 19.08568272 176.43277055 22.05730444 C200.46754915 25.06906203 224.50282798 28.07678181 248.53872949 31.07956511 C249.67592135 31.22163623 249.67592135 31.22163623 250.83608678 31.36657748 C257.78385642 32.23457175 264.73163156 33.10252204 271.67941326 33.9704198 C289.1013424 36.14672212 306.52319419 38.32364336 323.94499439 40.50097769 C324.7433126 40.60074917 325.54163082 40.70052065 326.36414049 40.80331551 C365.71657646 45.72152509 405.06814102 50.64669445 444.41964227 55.57237631 C458.2721752 57.30631288 472.12471126 59.04022444 485.97726113 60.77402574 C486.83839317 60.88180613 487.69952522 60.98958652 488.58675218 61.10063298 C528.48303968 66.09406664 568.37989857 71.08292756 608.27689967 76.07065604 C610.88647739 76.39689312 613.49605481 76.72313257 616.10563213 77.04937274 C631.84156114 79.0166221 647.57749521 80.98383091 663.31343545 82.95099034 C702.43273759 87.84132184 741.55196393 92.73225941 780.67113668 97.62362581 C781.56169456 97.73497874 782.45225244 97.84633166 783.36979692 97.96105891 C841.0461527 105.17275929 898.72218984 112.38700447 956.39797193 119.60329157 C957.77915219 119.77610216 957.77915219 119.77610216 959.18823509 119.95240388 C988.15505358 123.57667997 1017.12184966 127.20113516 1046.0886429 130.82561308 C1076.16828233 134.58933575 1106.24792728 138.35301433 1136.32759553 142.11650664 C1137.26029236 142.23320338 1138.19298918 142.34990012 1139.15394954 142.47013313 C1227.73797736 153.55353179 1316.32280466 164.63053425 1404.90780856 175.70612836 C1409.5976387 176.29248821 1414.28746859 176.87885006 1418.97729851 177.4652117 C1436.75082104 179.68740494 1454.52434467 181.90958931 1472.29786857 184.13177156 C1475.09545859 184.48154776 1477.89304859 184.83132408 1480.69063858 185.18110044 C1489.06762998 186.22845661 1497.4446215 187.27581188 1505.82161357 188.3231627 C1595.45786503 199.53012285 1685.09384292 210.73927037 1861.18905572 232.76291095 C1868.98109899 233.73746498 1876.77314266 234.71201573 1884.56518656 235.68656474 C1885.42108949 235.79361236 1886.27699241 235.90065998 1887.15883179 236.01095147 C1913.19469862 239.26725012 1939.2305958 242.52330602 1965.26651583 245.77917931 C2038.34242035 254.91755864 2111.41817957 264.05709609 2184.49333551 273.20145982 C2190.65837865 273.97293023 2196.82342309 274.74439026 2202.98846818 275.5158451 C2204.51714619 275.70713433 2206.04582413 275.89842414 2207.57450199 276.08971453 C2231.58549149 279.09431253 2255.59666685 282.09742205 2279.60794878 285.09968218 C2303.88588832 288.13529254 2328.16361267 291.1726179 2352.44107307 294.21205793 C2366.26782883 295.94306061 2380.09475209 297.67271159 2393.92192043 299.40041549 C2403.08333378 300.54526986 2412.24452572 301.69188397 2421.40553302 302.83998301 C2426.61248489 303.4924911 2431.81953268 304.14420688 2437.02685203 304.7937764 C2441.74259898 305.38204119 2446.45806165 305.9725302 2451.17329889 306.56486624 C2452.87280239 306.77795362 2454.57241115 306.99020339 2456.27213237 307.20154709 C2458.56563395 307.48684075 2460.85873994 307.77512515 2463.15176795 308.06419667 C2464.42411929 308.22338104 2465.69647063 308.3825654 2467.00737808 308.54657354 C2470.18849641 309.00700957 2470.18849641 309.00700957 2474.18849641 310.00700957 C2474.18849641 516.25700957 2474.18849641 722.50700957 2474.18849641 935.00700957 C2463.71352886 932.679239 2453.27628596 930.35689145 2442.8749728 927.74215119 C2442.09573721 927.54657495 2441.31650162 927.35099871 2440.51365283 927.14949592 C2439.70404516 926.9462525 2438.89443748 926.74300908 2438.06029624 926.53360677 C2436.29853684 926.09322267 2434.53672543 925.65304666 2432.77486756 925.21305672 C2427.95825879 924.00956997 2423.14238648 922.80315989 2418.32663469 921.59624924 C2413.05847134 920.27652226 2407.78961298 918.95957519 2402.52084482 917.64226529 C2393.25952962 915.32632813 2383.99865422 913.00863915 2374.73806356 910.6898066 C2360.87475048 907.21847627 2347.01074377 903.74992221 2333.14659658 900.28192495 C2309.51707119 894.3711679 2285.88811536 888.45813665 2262.25944215 882.54397398 C2238.31435815 876.55062711 2214.36900698 870.55834924 2190.42332536 864.5673905 C2189.66779314 864.37836392 2188.91226092 864.18933734 2188.13383379 863.99458268 C2179.65778906 861.87396361 2171.18173627 859.75337677 2162.70567962 857.63280539 C2147.69829733 853.87820222 2132.690942 850.12349129 2117.68359524 846.36874611 C2116.07750813 845.96691306 2114.47142093 845.56508036 2112.86533364 845.163248 C2087.28070141 838.76214078 2061.69621017 832.36047026 2036.11180836 825.95844215 C2034.42085674 825.5353131 2032.7299051 825.11218414 2031.03895344 824.68905528 C2027.64653417 823.84016611 2024.25411493 822.99127681 2020.86169573 822.1423874 C2019.16030425 821.7166461 2017.45891277 821.29090481 2015.75752129 820.86516354 C2014.91408197 820.65410868 2014.07064264 820.44305381 2013.20164455 820.22560334 C1928.37903564 799.00034437 1843.55500919 777.78075556 1758.73032264 756.56380127 C1747.26666049 753.69642849 1735.80300358 750.82903478 1724.33934902 747.96163168 C1722.56741028 747.51841687 1720.79547154 747.07520208 1719.0235328 746.6319873 C1718.14569026 746.41241267 1717.26784772 746.19283804 1716.36340389 745.96660963 C1715.48507313 745.74691288 1714.60674237 745.52721613 1713.70179552 745.30086191 C1712.82297251 745.08104202 1711.9441495 744.86122213 1711.0386955 744.63474103 C1701.24332148 742.18462559 1691.44794632 739.73451468 1681.65257067 737.28440577 C1680.76825532 737.06321273 1679.88393996 736.84201969 1678.97282717 736.61412382 C1665.52527762 733.2505003 1652.0777252 729.88688824 1638.63017153 726.52328118 C1559.52175273 706.73606374 1480.41343283 686.94845094 1401.30533364 667.15995577 C1397.5678394 666.2250404 1393.83034478 665.29012652 1390.09284982 664.35521403 C1301.83518796 642.2780764 1213.57805123 620.19884223 1125.32240754 598.11363798 C1124.39287877 597.88103173 1123.46334999 597.64842548 1122.50565368 597.40877055 C1091.5922916 589.67297715 1060.67896732 581.93703267 1029.76565037 574.20105895 C943.45495684 552.60204371 857.14385683 531.00465773 770.83035165 509.41688067 C769.49967615 509.08406611 769.49967615 509.08406611 768.14211832 508.74452803 C729.18555293 499.00112343 690.22881677 489.25840185 651.27188165 479.51647564 C635.60059876 475.59756757 619.92934401 471.67854693 604.25810572 467.7594605 C601.65972747 467.109655 599.06134841 466.45985278 596.46296929 465.81005077 C541.18177264 451.98530262 485.90289351 438.15131347 430.62522232 424.31247625 C392.32708973 414.72450284 354.0285936 405.13799227 315.72771078 395.56101006 C314.93368794 395.3624671 314.13966509 395.16392413 313.32158095 394.95936471 C296.00150501 390.62856199 278.68123845 386.29852218 261.36078512 381.96922904 C254.45372163 380.24277674 247.54668479 378.51621781 240.63965684 376.78962332 C239.88620654 376.60128136 239.13275625 376.41293941 238.35647412 376.21889012 C214.43432208 370.23895195 190.51436329 364.25029827 166.59564892 358.25662606 C143.05532857 352.35781031 119.51289904 346.46749988 95.96732769 340.58967656 C81.54247734 336.98870676 67.11956324 333.38022793 52.69981045 329.75889736 C43.57119766 327.46717702 34.44009624 325.18557511 25.30684098 322.91242732 C20.11837738 321.62077776 14.93114804 320.32464058 9.74691973 319.01608566 C5.04823138 317.83017213 0.34651905 316.65717463 -4.35800256 315.49462417 C-6.04936065 315.07423794 -7.73954132 314.64907965 -9.42837537 314.21866553 C-11.71541529 313.63651736 -14.00611288 313.07190754 -16.29855392 312.51146982 C-17.56627689 312.19430107 -18.83399986 311.87713232 -20.14013868 311.5503524 C-26.83549093 310.55947523 -32.8452453 312.14044798 -39.36358412 313.77059487 C-40.08457459 313.94953882 -40.80556505 314.12848276 -41.54840371 314.31284925 C-43.96059146 314.91275178 -46.3710478 315.51933351 -48.78156716 316.1259023 C-50.53953713 316.56459179 -52.29761021 317.00286824 -54.0557766 317.4407699 C-58.90919856 318.65087834 -63.76112962 319.86687253 -68.6128472 321.08379362 C-73.90261935 322.40948418 -79.19375663 323.7297055 -84.48472285 325.05062065 C-93.80080372 327.37723148 -103.11599887 329.70736168 -112.4306352 332.03974868 C-126.37493419 335.53138364 -140.32058716 339.01758941 -154.26651539 342.50271018 C-178.03122923 348.44164369 -201.79478226 354.38521109 -225.55775756 360.33109671 C-249.64867568 366.35902209 -273.74010795 372.38488642 -297.83217543 378.40821654 C-298.59152259 378.59806415 -299.35086974 378.78791176 -300.13322742 378.98351232 C-307.09197757 380.72329799 -314.05073369 382.46305981 -321.00949689 384.20279329 C-338.46049745 388.5656509 -355.9114223 392.92881135 -373.36229748 397.29217046 C-374.1620271 397.49213194 -374.96175673 397.69209342 -375.78572059 397.89811434 C-414.36305182 407.54387648 -452.93954723 417.19297982 -491.51598112 426.84232997 C-547.98679179 440.96770225 -604.45812888 455.09096688 -660.93020552 469.21127707 C-662.67369442 469.64722074 -664.41718329 470.08316446 -666.16067216 470.51910822 C-683.6846358 474.9008159 -701.20861166 479.28247473 -718.73259482 483.66410433 C-755.26393102 492.79826013 -791.79519533 501.93270339 -828.32642274 511.06729425 C-830.1286389 511.51793629 -831.9308551 511.96857816 -833.73307134 512.41921985 C-920.55031833 534.12775424 -1007.366775 555.8394486 -1094.18309978 577.55167073 C-1098.88309919 578.72711111 -1103.58309883 579.90255056 -1108.28309848 581.07799001 C-1110.16408118 581.5484116 -1112.04506389 582.0188332 -1113.92604659 582.4892548 C-1114.85735401 582.72216875 -1115.78866142 582.95508271 -1116.74819028 583.19505466 C-1120.51260535 584.13651055 -1124.27702039 585.07796659 -1128.04143542 586.01942263 C-1145.95318411 590.49903602 -1163.86493312 594.97864815 -1181.77668321 599.45825592 C-1185.55321416 600.40274082 -1189.32974503 601.34722605 -1193.10627584 602.29171153 C-1279.99125068 624.02106955 -1366.87651064 645.74928741 -1453.76190086 667.4769845 C-1458.46180732 668.65230462 -1463.16171352 669.82762579 -1467.86161963 671.00294727 C-1552.81116973 692.2465686 -1637.76085069 713.48966649 -1722.71081954 734.73161323 C-1725.4135119 735.40742815 -1728.11620417 736.08324343 -1730.8188964 736.75905883 C-1764.68529898 745.2274428 -1798.5517071 753.69580461 -1832.41814901 762.16403132 C-1853.44400808 767.42150018 -1874.46985892 772.67900199 -1895.49569625 777.93655783 C-1896.3577375 778.15211299 -1897.21977875 778.36766814 -1898.10794246 778.58975528 C-1956.2988203 793.14050795 -2014.48916856 807.69337731 -2072.67922966 822.24739589 C-2082.94291401 824.81446395 -2093.20660052 827.38152339 -2103.47029108 829.94856662 C-2104.31148712 830.15895751 -2105.15268316 830.3693484 -2106.01936999 830.58611478 C-2131.70766612 837.01098721 -2157.39609099 843.43534473 -2183.08464855 849.85917181 C-2183.88304848 850.05882444 -2184.68144841 850.25847707 -2185.50404227 850.46417978 C-2202.14072505 854.62444443 -2218.77743088 858.78461692 -2235.41416691 862.94466861 C-2243.13586186 864.87549545 -2250.85755145 866.80634371 -2258.57923812 868.73720366 C-2259.33674831 868.92662377 -2260.0942585 869.11604388 -2260.87472355 869.31120399 C-2284.94048381 875.32900682 -2309.00587647 881.34827808 -2333.07105832 887.36839351 C-2356.74864493 893.29154359 -2380.42658072 899.21329541 -2404.10503448 905.13297806 C-2418.61624118 908.76082403 -2433.1271293 912.38993797 -2447.63748347 916.02119246 C-2456.81697468 918.31825072 -2465.99688341 920.61363481 -2475.1771477 922.90760148 C-2480.39683549 924.21195044 -2485.6163291 925.51706347 -2490.8353127 926.82422747 C-2495.55907862 928.0073437 -2500.28336869 929.18834112 -2505.00810834 930.36756261 C-2506.71334406 930.79357258 -2508.41837846 931.22038931 -2510.12319683 931.64806642 C-2512.4183615 932.2237219 -2514.71421823 932.79652747 -2517.01028606 933.3685681 C-2518.28545744 933.68748492 -2519.56062882 934.00640174 -2520.87444176 934.33498271 C-2523.81150359 935.00700957 -2523.81150359 935.00700957 -2525.81150359 935.00700957 C-2525.81150359 728.75700957 -2525.81150359 522.50700957 -2525.81150359 310.00700957 C-2483.28329203 304.25995395 -2483.28329203 304.25995395 -2468.48547536 302.4175241 C-2466.71683076 302.195879 -2464.94820612 301.9740745 -2463.1795989 301.75213131 C-2458.43346154 301.15698503 -2453.68705319 300.56402768 -2448.94058706 299.97150994 C-2443.71456517 299.31870139 -2438.48881469 298.66372631 -2433.26302576 298.009056 C-2424.10715216 296.86233054 -2414.95111231 295.71694048 -2405.79495753 294.5724624 C-2392.08818005 292.85917213 -2378.38166819 291.14376381 -2364.67520321 289.42797552 C-2341.30657643 286.50273456 -2317.93773156 283.57923955 -2294.56876296 280.65673071 C-2270.9053954 277.69740093 -2247.24212645 274.7372845 -2223.5789749 271.77622801 C-2222.06627884 271.58693976 -2220.55358278 271.39765158 -2219.0408867 271.20836347 C-2212.94103057 270.4450694 -2206.84117499 269.68177096 -2200.74132004 268.91846741 C-2126.93991095 259.68336334 -2053.137999 250.45228083 -1979.33597242 241.22211288 C-1956.26295837 238.33644849 -1933.18995724 235.45068075 -1910.11696597 232.5648342 C-1823.740522 221.76133244 -1737.36402063 210.95828959 -1534.12356791 185.54337266 C-1524.03808736 184.28231859 -1513.95260775 183.02125699 -1503.86712828 181.76019432 C-1502.95776114 181.64648939 -1502.048394 181.53278445 -1501.11147028 181.41563391 C-1482.68756459 179.11195578 -1464.26365984 176.80827008 -1445.83975643 174.50457369 C-1441.22144352 173.92710701 -1436.60313054 173.34964096 -1431.98481735 172.77217646 C-1344.72053375 161.86082622 -1257.4564508 150.94787555 -1170.19309539 140.02910429 C-1169.27376563 139.91407382 -1168.35443587 139.79904336 -1167.40724763 139.68052712 C-1136.83156533 135.85476292 -1106.25590736 132.02880418 -1075.68025194 128.20282512 C-1048.05162229 124.74561251 -1020.42298691 121.28844572 -992.79433173 117.83143717 C-991.88668391 117.71786855 -990.97903608 117.60429994 -990.04388378 117.48728985 C-933.2071867 110.37566091 -876.37021122 103.26626037 -819.53294486 96.15918261 C-818.65524552 96.04943255 -817.77754618 95.93968249 -816.8732499 95.82660667 C-778.32920004 91.00695005 -739.78508981 86.18777643 -701.24091185 81.36914444 C-685.73573726 79.43075073 -670.23057051 77.49229434 -654.72540764 75.55380686 C-652.15465609 75.23240689 -649.58390424 74.91100924 -647.01315235 74.58961196 C-607.69239725 69.67368836 -568.37182621 64.75629898 -529.05179566 59.8345831 C-528.20387037 59.72844778 -527.35594508 59.62231245 -526.48232509 59.51296091 C-512.8428368 57.80568933 -499.20336343 56.09829859 -485.56389217 54.39089094 C-446.85226569 49.54491855 -408.1405268 44.69985301 -369.4279632 39.8613717 C-368.24995437 39.71413791 -368.24995437 39.71413791 -367.04814739 39.56392971 C-349.91573044 37.42264869 -332.78324978 35.28187776 -315.65070664 33.14160666 C-308.81820079 32.28805253 -301.98570348 31.43443013 -295.15320891 30.58078581 C-294.4079044 30.48767013 -293.66259989 30.39455445 -292.8947104 30.29861709 C-269.25163977 27.34470333 -245.60928486 24.38510921 -221.96733604 21.42223134 C-198.047798 18.42458955 -174.12747511 15.4333038 -150.20617082 12.44978676 C-136.5939524 10.75183968 -122.98239276 9.04881104 -109.37174105 7.33834965 C-100.34020142 6.20385855 -91.30784639 5.07602835 -82.27478982 3.95367972 C-77.1494511 3.31666987 -72.02451855 2.6767803 -66.90056754 2.02869448 C-62.24773245 1.44025072 -57.59391054 0.86037843 -52.93917113 0.28719892 C-51.27378779 0.08063027 -49.6087792 -0.12899025 -47.94422594 -0.34214455 C-31.6651645 -2.42342911 -16.24986155 -2.07995045 0 0 Z " fill="#A2A2A2" transform="translate(2525.8115035891533,314.99299043416977)"/>
<path d="M0 0 C3.10683815 0.91937047 5.43919765 2.25147231 8.1875 3.96875 C9.24662598 4.62560791 10.30575195 5.28246582 11.39697266 5.95922852 C12.53299852 6.6744499 13.66890061 7.38986793 14.8046875 8.10546875 C15.98317933 8.84037509 17.16205711 9.57466286 18.34130859 10.30834961 C21.79384951 12.45977222 25.23744915 14.62509974 28.6796875 16.79296875 C29.5665625 17.35048828 30.4534375 17.90800781 31.3671875 18.48242188 C35.20406508 20.8960421 39.03545173 23.31815385 42.86328125 25.74609375 C48.34982074 29.22284889 53.85789298 32.66492184 59.3671875 36.10546875 C60.37668457 36.73590088 61.38618164 37.36633301 62.42626953 38.01586914 C64.48381522 39.30057025 66.54143282 40.5851562 68.59912109 41.86962891 C73.62715237 45.00886098 78.65334091 48.15104026 83.6796875 51.29296875 C85.67967835 52.54298339 87.67967836 53.79298337 89.6796875 55.04296875 C287.67968798 178.79296905 287.67968798 178.79296905 584.67919922 364.41772461 C586.68075369 365.66865544 588.68238139 366.9194691 590.68408203 368.17016602 C595.66090346 371.27997144 600.63646718 374.39175206 605.609375 377.5078125 C616.04359982 384.0428194 626.49996568 390.53892503 636.9921875 396.98046875 C645.21913497 402.03195471 653.41786258 407.12245308 661.57080078 412.29248047 C667.82060872 416.25535123 674.09033549 420.18558323 680.3671875 424.10546875 C681.37668457 424.73590088 682.38618164 425.36633301 683.42626953 426.01586914 C685.48381522 427.30057025 687.54143282 428.5851562 689.59912109 429.86962891 C694.62715237 433.00886098 699.65334091 436.15104026 704.6796875 439.29296875 C706.67967835 440.54298339 708.67967836 441.79298337 710.6796875 443.04296875 C809.6796875 504.91796875 908.6796875 566.79296875 1442.6796875 900.54296875 C1443.67049316 901.16220215 1444.66129883 901.78143555 1445.68212891 902.41943359 C1447.6740641 903.66443365 1449.66592656 904.90955008 1451.65771484 906.15478516 C1456.78050392 909.35726207 1461.90469571 912.55745964 1467.03125 915.75390625 C1485.12169621 927.03669072 1485.12169621 927.03669072 1493.1796875 932.16796875 C1494.2625 932.85632812 1495.3453125 933.5446875 1496.4609375 934.25390625 C1497.193125 934.76179688 1497.9253125 935.2696875 1498.6796875 935.79296875 C1498.6796875 936.12296875 1498.6796875 936.45296875 1498.6796875 936.79296875 C509.3396875 936.79296875 -480.0003125 936.79296875 -1499.3203125 936.79296875 C-1496.75000091 934.22265716 -1494.66691225 932.62829172 -1491.62109375 930.74609375 C-1490.67169922 930.15634766 -1489.72230469 929.56660156 -1488.74414062 928.95898438 C-1487.71740234 928.32669922 -1486.69066406 927.69441406 -1485.6328125 927.04296875 C-1483.4413398 925.68370087 -1481.24993542 924.32432285 -1479.05859375 922.96484375 C-1477.93662598 922.27068359 -1476.8146582 921.57652344 -1475.65869141 920.86132812 C-1470.53610029 917.68752441 -1465.42850977 914.48986682 -1460.3203125 911.29296875 C-1458.32039494 910.04283686 -1456.32039465 908.7928373 -1454.3203125 907.54296875 C-1453.3303125 906.92421875 -1452.3403125 906.30546875 -1451.3203125 905.66796875 C-1352.3203125 843.79296875 -1253.3203125 781.91796875 -47.31591797 28.1652832 C-45.33049314 26.92435223 -43.34514071 25.68330544 -41.35986328 24.44213867 C-36.13747308 21.17739334 -30.91357059 17.91510121 -25.6875 14.65625 C-24.05748047 13.63917969 -24.05748047 13.63917969 -22.39453125 12.6015625 C-20.31687093 11.30524452 -18.23877098 10.00963079 -16.16015625 8.71484375 C-14.75056641 7.83505859 -14.75056641 7.83505859 -13.3125 6.9375 C-12.4369043 6.39432129 -11.56130859 5.85114258 -10.65917969 5.29150391 C-8.68968822 4.0296314 -6.82835939 2.69889387 -4.953125 1.3046875 C-2.3203125 -0.20703125 -2.3203125 -0.20703125 0 0 Z " fill="#DFDFDF" transform="translate(2500.3203125,1563.20703125)"/>
<path d="M0 0 C2.82749964 1.33441371 5.29610568 2.83769351 7.80859375 4.6953125 C8.91267578 5.50935547 8.91267578 5.50935547 10.0390625 6.33984375 C11.22628906 7.22349609 11.22628906 7.22349609 12.4375 8.125 C13.27152344 8.74246094 14.10554688 9.35992188 14.96484375 9.99609375 C22.07881246 15.27863897 29.12342138 20.65058169 36.15991211 26.03564453 C41.89604575 30.41865249 47.67614956 34.73437041 53.5 39 C61.12740017 44.5866242 68.65644565 50.29276338 76.1640625 56.0390625 C81.89902727 60.42064326 87.67759563 64.73542958 93.5 69 C101.12740017 74.5866242 108.65644565 80.29276338 116.1640625 86.0390625 C121.89902727 90.42064326 127.67759563 94.73542958 133.5 99 C141.12740017 104.5866242 148.65644565 110.29276338 156.1640625 116.0390625 C161.89902727 120.42064326 167.67759563 124.73542958 173.5 129 C181.12740017 134.5866242 188.65644565 140.29276338 196.1640625 146.0390625 C201.89902727 150.42064326 207.67759563 154.73542958 213.5 159 C221.12740017 164.5866242 228.65644565 170.29276338 236.1640625 176.0390625 C241.89902727 180.42064326 247.67759563 184.73542958 253.5 189 C261.12740017 194.5866242 268.65644565 200.29276338 276.1640625 206.0390625 C281.89902727 210.42064326 287.67759563 214.73542958 293.5 219 C301.12740017 224.5866242 308.65644565 230.29276338 316.1640625 236.0390625 C321.89902727 240.42064326 327.67759563 244.73542958 333.5 249 C341.12740017 254.5866242 348.65644565 260.29276338 356.1640625 266.0390625 C361.89902727 270.42064326 367.67759563 274.73542958 373.5 279 C381.12740017 284.5866242 388.65644565 290.29276338 396.1640625 296.0390625 C401.89902727 300.42064326 407.67759563 304.73542958 413.5 309 C421.12740017 314.5866242 428.65644565 320.29276338 436.1640625 326.0390625 C441.89902727 330.42064326 447.67759563 334.73542958 453.5 339 C461.12740017 344.5866242 468.65644565 350.29276338 476.1640625 356.0390625 C481.89902727 360.42064326 487.67759563 364.73542958 493.5 369 C501.12740017 374.5866242 508.65644565 380.29276338 516.1640625 386.0390625 C521.89902727 390.42064326 527.67759563 394.73542958 533.5 399 C541.12740017 404.5866242 548.65644565 410.29276338 556.1640625 416.0390625 C561.89902727 420.42064326 567.67759563 424.73542958 573.5 429 C581.12740017 434.5866242 588.65644565 440.29276338 596.1640625 446.0390625 C601.89902727 450.42064326 607.67759563 454.73542958 613.5 459 C621.12740017 464.5866242 628.65644565 470.29276338 636.1640625 476.0390625 C641.89902727 480.42064326 647.67759563 484.73542958 653.5 489 C660.22497458 493.92565028 666.88038993 498.93366232 673.5 504 C683.24542339 511.4553294 693.10033874 518.75129406 703 526 C713.80253607 533.90980675 724.53121949 541.90107083 735.16357422 550.03857422 C740.89860116 554.42045195 746.67741141 558.73529465 752.5 563 C760.12740017 568.5866242 767.65644565 574.29276338 775.1640625 580.0390625 C781.66043063 585.0023644 788.22263065 589.86764675 794.81835938 594.69775391 C801.84035908 599.85279337 808.76491603 605.13127825 815.68041992 610.42797852 C821.16472809 614.6227766 826.68949616 618.73445078 832.33203125 622.71484375 C832.88246094 623.13894531 833.43289063 623.56304688 834 624 C834 624.33 834 624.66 834 625 C284.22 625 -265.56 625 -832 625 C-829.33669079 622.33669079 -827.16100546 620.25646871 -824.19140625 618.109375 C-823.08732422 617.305 -823.08732422 617.305 -821.9609375 616.484375 C-821.16945313 615.91203125 -820.37796875 615.3396875 -819.5625 614.75 C-812.47740196 609.58127315 -805.46139904 604.33411783 -798.5 599 C-791.11391644 593.34603608 -783.66804634 587.78529147 -776.1640625 582.2890625 C-770.22328567 577.92722968 -764.3524674 573.47945452 -758.5 569 C-751.11358208 563.34646605 -743.66805534 557.78529806 -736.1640625 552.2890625 C-730.22328567 547.92722968 -724.3524674 543.47945452 -718.5 539 C-711.11358208 533.34646605 -703.66805534 527.78529806 -696.1640625 522.2890625 C-690.22328567 517.92722968 -684.3524674 513.47945452 -678.5 509 C-671.11358208 503.34646605 -663.66805534 497.78529806 -656.1640625 492.2890625 C-650.22328567 487.92722968 -644.3524674 483.47945452 -638.5 479 C-631.11358208 473.34646605 -623.66805534 467.78529806 -616.1640625 462.2890625 C-610.22328567 457.92722968 -604.3524674 453.47945452 -598.5 449 C-591.11358208 443.34646605 -583.66805534 437.78529806 -576.1640625 432.2890625 C-570.22328567 427.92722968 -564.3524674 423.47945452 -558.5 419 C-551.11358208 413.34646605 -543.66805534 407.78529806 -536.1640625 402.2890625 C-530.22328567 397.92722968 -524.3524674 393.47945452 -518.5 389 C-511.11358208 383.34646605 -503.66805534 377.78529806 -496.1640625 372.2890625 C-490.22328567 367.92722968 -484.3524674 363.47945452 -478.5 359 C-471.11358208 353.34646605 -463.66805534 347.78529806 -456.1640625 342.2890625 C-450.22328567 337.92722968 -444.3524674 333.47945452 -438.5 329 C-431.11358208 323.34646605 -423.66805534 317.78529806 -416.1640625 312.2890625 C-410.22328567 307.92722968 -404.3524674 303.47945452 -398.5 299 C-391.11358208 293.34646605 -383.66805534 287.78529806 -376.1640625 282.2890625 C-370.22328567 277.92722968 -364.3524674 273.47945452 -358.5 269 C-351.11358208 263.34646605 -343.66805534 257.78529806 -336.1640625 252.2890625 C-330.22328567 247.92722968 -324.3524674 243.47945452 -318.5 239 C-311.11358208 233.34646605 -303.66805534 227.78529806 -296.1640625 222.2890625 C-290.22328567 217.92722968 -284.3524674 213.47945452 -278.5 209 C-271.11358208 203.34646605 -263.66805534 197.78529806 -256.1640625 192.2890625 C-250.22328567 187.92722968 -244.3524674 183.47945452 -238.5 179 C-231.11358208 173.34646605 -223.66805534 167.78529806 -216.1640625 162.2890625 C-210.22328567 157.92722968 -204.3524674 153.47945452 -198.5 149 C-191.11358208 143.34646605 -183.66805534 137.78529806 -176.1640625 132.2890625 C-170.22328567 127.92722968 -164.3524674 123.47945452 -158.5 119 C-151.11358208 113.34646605 -143.66805534 107.78529806 -136.1640625 102.2890625 C-130.22328567 97.92722968 -124.3524674 93.47945452 -118.5 89 C-111.11358208 83.34646605 -103.66805534 77.78529806 -96.1640625 72.2890625 C-90.22328567 67.92722968 -84.3524674 63.47945452 -78.5 59 C-71.11358208 53.34646605 -63.66805534 47.78529806 -56.1640625 42.2890625 C-49.33066631 37.27185134 -42.59353084 32.1338017 -35.86230469 26.98071289 C-29.12581183 21.83321626 -22.32603954 16.77804821 -15.47851562 11.77929688 C-10.24185578 7.94908103 -5.1018988 4.00788493 0 0 Z " fill="#EFEFEF" transform="translate(2499,1875)"/>
<path d="M0 0 C5.02288124 1.495577 7.96847849 4.4989195 11.625 8.0625 C15.82228801 12.06219108 20.02836314 15.94051696 24.5625 19.5625 C28.71100505 22.8825224 32.62525296 26.37051167 36.5 30 C40.39576281 33.64888449 44.33334284 37.15698438 48.5 40.5 C53.26108478 44.31994011 57.71273025 48.38938819 62.1640625 52.55859375 C65.51116869 55.67568554 68.93014141 58.63581113 72.5 61.5 C77.26108478 65.31994011 81.71273025 69.38938819 86.1640625 73.55859375 C89.51116869 76.67568554 92.93014141 79.63581113 96.5 82.5 C101.26108478 86.31994011 105.71273025 90.38938819 110.1640625 94.55859375 C113.51116869 97.67568554 116.93014141 100.63581113 120.5 103.5 C125.26108478 107.31994011 129.71273025 111.38938819 134.1640625 115.55859375 C137.51116869 118.67568554 140.93014141 121.63581113 144.5 124.5 C149.26108478 128.31994011 153.71273025 132.38938819 158.1640625 136.55859375 C161.51116869 139.67568554 164.93014141 142.63581113 168.5 145.5 C173.26108478 149.31994011 177.71273025 153.38938819 182.1640625 157.55859375 C185.51116869 160.67568554 188.93014141 163.63581113 192.5 166.5 C197.26108478 170.31994011 201.71273025 174.38938819 206.1640625 178.55859375 C209.51116869 181.67568554 212.93014141 184.63581113 216.5 187.5 C221.26108478 191.31994011 225.71273025 195.38938819 230.1640625 199.55859375 C233.51116869 202.67568554 236.93014141 205.63581113 240.5 208.5 C245.26108478 212.31994011 249.71273025 216.38938819 254.1640625 220.55859375 C257.51116869 223.67568554 260.93014141 226.63581113 264.5 229.5 C269.26108478 233.31994011 273.71273025 237.38938819 278.1640625 241.55859375 C281.51116869 244.67568554 284.93014141 247.63581113 288.5 250.5 C293.26108478 254.31994011 297.71273025 258.38938819 302.1640625 262.55859375 C305.51116869 265.67568554 308.93014141 268.63581113 312.5 271.5 C317.26108478 275.31994011 321.71273025 279.38938819 326.1640625 283.55859375 C329.51116869 286.67568554 332.93014141 289.63581113 336.5 292.5 C344.04482285 298.55804893 351.15935609 305.15935609 358 312 C120.73 312 -116.54 312 -361 312 C-354.48062121 305.48062121 -347.73312601 299.35849957 -340.5625 293.5625 C-336.75912497 290.48663412 -333.09917348 287.31246834 -329.5 284 C-325.0301488 279.88621091 -320.40955107 276.02912703 -315.68359375 272.21484375 C-313.05291443 270.04367173 -310.52057576 267.79758643 -308 265.5 C-304.60401318 262.40444804 -301.13828469 259.44848793 -297.5625 256.5625 C-292.788597 252.70174863 -288.26611572 248.62562925 -283.75 244.46875 C-280.18815771 241.27118704 -276.47434167 238.28611657 -272.75 235.28125 C-269.91900422 232.93281032 -267.20616402 230.49090098 -264.5 228 C-260.05272888 223.90648909 -255.45282537 220.07557501 -250.75 216.28125 C-247.91900422 213.93281032 -245.20616402 211.49090098 -242.5 209 C-238.05272888 204.90648909 -233.45282537 201.07557501 -228.75 197.28125 C-225.91900422 194.93281032 -223.20616402 192.49090098 -220.5 190 C-216.05272888 185.90648909 -211.45282537 182.07557501 -206.75 178.28125 C-203.91900422 175.93281032 -201.20616402 173.49090098 -198.5 171 C-194.05272888 166.90648909 -189.45282537 163.07557501 -184.75 159.28125 C-181.91900422 156.93281032 -179.20616402 154.49090098 -176.5 152 C-172.05272888 147.90648909 -167.45282537 144.07557501 -162.75 140.28125 C-159.91900422 137.93281032 -157.20616402 135.49090098 -154.5 133 C-150.0301488 128.88621091 -145.40955107 125.02912703 -140.68359375 121.21484375 C-138.05291443 119.04367173 -135.52057576 116.79758643 -133 114.5 C-129.60401318 111.40444804 -126.13828469 108.44848793 -122.5625 105.5625 C-117.788597 101.70174863 -113.26611572 97.62562925 -108.75 93.46875 C-105.18815771 90.27118704 -101.47434167 87.28611657 -97.75 84.28125 C-94.91900422 81.93281032 -92.20616402 79.49090098 -89.5 77 C-85.05272888 72.90648909 -80.45282537 69.07557501 -75.75 65.28125 C-72.91900422 62.93281032 -70.20616402 60.49090098 -67.5 58 C-63.05272888 53.90648909 -58.45282537 50.07557501 -53.75 46.28125 C-50.91900422 43.93281032 -48.20616402 41.49090098 -45.5 39 C-41.05272888 34.90648909 -36.45282537 31.07557501 -31.75 27.28125 C-28.91900422 24.93281032 -26.20616402 22.49090098 -23.5 20 C-18.97593212 15.83785755 -14.30870624 11.9129148 -9.52734375 8.05078125 C-6.29598385 5.42873496 -3.1445053 2.72523793 0 0 Z " fill="#FEFEFE" transform="translate(2499,2188)"/>
</svg>
