<?xml version="1.0" encoding="UTF-8"?>
<svg version="1.1" xmlns="http://www.w3.org/2000/svg" width="512" height="512">
<path d="M0 0 C0.86745871 -0.00297112 1.73491742 -0.00594224 2.62866277 -0.0090034 C5.51141895 -0.0176174 8.39413325 -0.01919244 11.27690125 -0.02069092 C13.35412686 -0.02532443 15.43135164 -0.0303498 17.50857544 -0.03573608 C23.13730472 -0.04881455 28.76602209 -0.05529665 34.39476418 -0.05974674 C37.91987722 -0.06268608 41.44498707 -0.06679259 44.9700985 -0.07125092 C56.02365138 -0.08491662 67.07719689 -0.09458664 78.13075763 -0.09845281 C90.84425816 -0.10292518 103.55765073 -0.12043889 116.27111846 -0.1494534 C126.1271595 -0.17115715 135.98317036 -0.18116178 145.83923501 -0.18249393 C151.71172668 -0.18353615 157.58411675 -0.18931836 163.45658302 -0.20731354 C168.99130943 -0.2239442 174.52585951 -0.22587793 180.06060219 -0.21717453 C182.07597327 -0.21641199 184.09135443 -0.22064149 186.1067009 -0.23063278 C226.64913531 -0.41960426 261.48236657 11.97442103 290.51396179 40.69903564 C313.16860918 64.90373786 326.10473308 97.02931082 326.06846619 130.2124176 C326.07292287 131.51360567 326.07292287 131.51360567 326.07746959 132.84108037 C326.08608359 135.72383655 326.08765863 138.60655085 326.0891571 141.48931885 C326.09379062 143.56654447 326.09881599 145.64376924 326.10420227 147.72099304 C326.11728074 153.34972232 326.12376284 158.9784397 326.12821293 164.60718179 C326.13115227 168.13229483 326.13525877 171.65740468 326.1397171 175.1825161 C326.1533828 186.23606898 326.16305283 197.28961449 326.16691899 208.34317523 C326.17139137 221.05667576 326.18890507 233.77006833 326.21791959 246.48353606 C326.23962333 256.3395771 326.24962796 266.19558796 326.25096011 276.05165261 C326.25200234 281.92414428 326.25778454 287.79653435 326.27577972 293.66900063 C326.29241038 299.20372703 326.29434411 304.73827711 326.28564072 310.27301979 C326.28487817 312.28839088 326.28910768 314.30377204 326.29909897 316.3191185 C326.48807045 356.86155291 314.09404515 391.69478417 285.36943054 420.72637939 C261.10275321 443.43903306 229.12704818 456.31724674 195.85604858 456.28088379 C194.55486052 456.28534047 194.55486052 456.28534047 193.22738582 456.28988719 C190.34462963 456.29850119 187.46191533 456.30007623 184.57914734 456.30157471 C182.50192172 456.30620822 180.42469695 456.31123359 178.34747314 456.31661987 C172.71874386 456.32969834 167.09002649 456.33618044 161.4612844 456.34063053 C157.93617136 456.34356987 154.41106151 456.34767638 150.88595009 456.3521347 C139.83239721 456.36580041 128.77885169 456.37547043 117.72529095 456.3793366 C105.01179042 456.38380897 92.29839785 456.40132268 79.58493012 456.43033719 C69.72888909 456.45204094 59.87287822 456.46204557 50.01681358 456.46337771 C44.14432191 456.46441994 38.27193184 456.47020215 32.39946556 456.48819733 C26.86473915 456.50482798 21.33018908 456.50676172 15.7954464 456.49805832 C13.78007531 456.49729578 11.76469415 456.50152528 9.74934769 456.51151657 C-31.10867309 456.70195902 -65.53238127 444.08944731 -94.88056946 415.39434814 C-117.38731272 391.76402332 -130.2479608 358.58941183 -130.2124176 326.06846619 C-130.21538872 325.20100747 -130.21835985 324.33354876 -130.221421 323.43980342 C-130.23003501 320.55704724 -130.23161004 317.67433294 -130.23310852 314.79156494 C-130.23774203 312.71433932 -130.24276741 310.63711455 -130.24815369 308.55989075 C-130.26123216 302.93116147 -130.26771425 297.30244409 -130.27216434 291.673702 C-130.27510369 288.14858896 -130.27921019 284.62347911 -130.28366852 281.09836769 C-130.29733422 270.04481481 -130.30700425 258.9912693 -130.31087041 247.93770856 C-130.31534279 235.22420803 -130.33285649 222.51081545 -130.361871 209.79734772 C-130.38357475 199.94130669 -130.39357938 190.08529583 -130.39491153 180.22923118 C-130.39595376 174.35673951 -130.40173596 168.48434944 -130.41973114 162.61188316 C-130.4363618 157.07715676 -130.43829553 151.54260668 -130.42959213 146.007864 C-130.42882959 143.99249291 -130.43305909 141.97711175 -130.44305038 139.96176529 C-130.63349284 99.10374451 -118.02098112 64.68003633 -89.32588196 35.33184814 C-65.69555713 12.82510488 -32.52094565 -0.0355432 0 0 Z M197.10771179 88.37872314 C192.70351223 94.95585561 191.16229365 101.25625227 191.92802429 109.14044189 C193.58395116 117.16747723 197.51423655 123.43785993 203.92802429 128.51544189 C211.61379942 132.67857009 219.78496478 133.41485294 228.33818054 131.64044189 C236.3554285 128.92168343 241.20705439 123.45600914 244.92802429 116.14044189 C247.84026212 108.51315234 247.90069382 100.9767944 245.02177429 93.33966064 C241.72455121 86.70988708 236.59940919 82.00993452 229.86552429 78.99200439 C217.4502145 75.39288533 205.08948657 77.98437802 197.10771179 88.37872314 Z M23.92802429 137.14044189 C23.09142273 137.85973877 22.25482117 138.57903564 21.39286804 139.32012939 C-1.3526053 159.14951641 -16.17691731 186.97933418 -18.29292297 217.30718994 C-19.42969186 249.02328331 -12.41212535 279.19794601 9.24052429 303.32794189 C10.7852329 304.94924762 12.34721296 306.55431691 13.92802429 308.14044189 C14.75689148 308.97575439 15.58575867 309.81106689 16.43974304 310.67169189 C38.73687678 332.79380889 66.93195494 344.28486753 98.17802429 344.57794189 C130.80230499 344.43134126 158.98527769 332.17996528 182.61552429 309.89044189 C202.04339153 289.56146764 214.5226689 262.33272275 215.92802429 234.14044189 C216.00730164 232.64384033 216.00730164 232.64384033 216.08818054 231.11700439 C216.96847431 198.27821951 204.31240814 168.42753818 181.9995575 144.76055908 C174.73396639 137.29429447 166.93568985 131.34997077 157.92802429 126.14044189 C156.98902283 125.59565186 156.98902283 125.59565186 156.03105164 125.03985596 C115.35016963 101.98144374 59.23069962 105.04710069 23.92802429 137.14044189 Z " fill="#030000" transform="translate(158.0719757080078,27.85955810546875)"/>
<path d="M0 0 C13.75544324 11.80404517 23.98437141 28.60976497 26.18359375 46.78515625 C27.77411284 69.50932056 23.54766696 90.90535643 8.29296875 108.5546875 C-5.37430344 123.00656235 -23.1696904 133.19770576 -43.43359375 134.0234375 C-65.69670713 134.49833869 -85.23000915 129.08522662 -101.91015625 113.703125 C-116.10234354 99.86015491 -124.68479024 80.6759727 -125.05786133 60.83666992 C-125.1115274 47.55968394 -122.64407156 35.7936787 -116.81640625 23.78515625 C-116.35878906 22.8209375 -115.90117187 21.85671875 -115.4296875 20.86328125 C-106.35221012 3.57720342 -90.39926879 -8.27975858 -72.06640625 -14.25 C-70.99390625 -14.56839844 -69.92140625 -14.88679687 -68.81640625 -15.21484375 C-68.01203125 -15.46105469 -67.20765625 -15.70726562 -66.37890625 -15.9609375 C-43.14505395 -21.80973713 -18.410504 -14.47816334 0 0 Z " fill="#030000" transform="translate(305.81640625,196.21484375)"/>
</svg>
